<svg width="691" height="1027" viewBox="0 0 691 1027" fill="none" xmlns="http://www.w3.org/2000/svg">
<g opacity="0.2" clip-path="url(#clip0_15_2342)">
<g opacity="0.9">
<path d="M272.274 124.07C272.274 124.07 232.846 131.089 228.857 165.376C224.868 199.663 249.798 252.551 256.587 274.948C263.376 297.346 281.325 311 300.732 333.397C320.139 355.795 355.923 372.555 361.83 376.659C367.736 380.801 370.344 382.565 370.344 382.565C370.344 382.565 397.921 352.765 459.172 352.267C520.385 351.768 538.526 373.591 538.526 373.591C538.526 373.591 557.703 352.42 593.909 344.328C630.115 336.235 658.727 326.609 668.89 290.097C679.093 253.586 663.022 196.94 643.462 159.354C623.901 121.807 638.322 106.543 638.322 106.543C638.322 106.543 611.743 105.316 614.581 150.035C617.42 194.715 624.208 242.387 594.791 260.911C565.412 279.436 539.485 291.44 531.661 299.417C523.836 307.394 519.042 312.035 519.042 312.035C519.042 312.035 515.859 285.687 482.069 254.506C448.318 223.326 413.723 200.43 412.61 165.759C411.536 131.089 414.375 125.259 412.687 116.515C410.999 107.77 408.583 109.765 408.583 109.765C408.583 109.765 411.767 122.881 392.053 145.931C372.339 169.019 347.524 203.076 358.608 248.639C369.692 294.201 363.709 300.798 363.709 300.798C363.709 300.798 358.762 277.058 328.232 247.603C297.702 218.148 219.806 162.653 272.235 124.07H272.274Z" fill="url(#paint0_linear_15_2342)"/>
<path d="M536.877 98.3356C536.877 98.3356 516.741 125.221 543.397 179.489C570.091 233.758 572.891 251.937 573.159 257.575L573.428 263.251C573.428 263.251 556.092 270.423 544.509 278.592C532.926 286.722 525.677 294.048 525.677 294.048C525.677 294.048 512.599 271.957 498.638 258.112C484.677 244.266 476.086 223.863 488.282 176.536C500.479 129.209 527.94 97.5302 536.838 98.3356H536.877Z" fill="url(#paint1_linear_15_2342)"/>
<path d="M471.598 234.18C471.598 234.18 454.301 216.729 447.627 208.829C440.915 200.967 437.579 184.053 444.866 140.14C452.153 96.1878 448.97 57.2218 439.074 35.5911C429.179 13.9603 416.752 5.75291 427.875 0.767106C438.998 -4.2187 480.995 15.1876 486.173 30.1067C491.312 45.0257 497.909 75.6309 486.25 121.04C474.59 166.449 463.506 209.941 471.637 234.18H471.598Z" fill="url(#paint2_linear_15_2342)"/>
</g>
<path d="M581.329 405.346C493.038 339.841 374.103 352.458 344.302 431.388C314.54 510.317 382.272 552.428 426.072 535.131C469.834 517.796 475.242 473.767 448.893 451.484C422.544 429.202 395.773 449.912 395.773 449.912L395.62 446.537C401.564 413.4 475.971 402.969 509.684 454.361C543.397 505.753 528.439 544.374 519.464 583.531C510.451 622.728 532.504 625.834 575 650.687C617.496 675.539 625.857 708.79 625.857 708.79C625.857 708.79 638.783 698.052 650.711 632.623C662.639 567.193 616.231 463.412 616.231 463.412C616.231 463.412 648.87 492.943 666.896 568.689C684.961 644.435 662.178 728.887 616.998 768.198C571.779 807.471 516.856 786.607 507.229 761.832C497.564 737.056 511.218 723.748 511.218 723.748C511.218 723.748 506.846 737.44 509.262 752.474C511.678 767.508 547.04 784.306 574.578 761.87C602.116 739.472 602.116 688.924 553.829 666.066C505.542 643.208 434.855 677.84 428.872 744.65C426.84 767.431 434.28 790.136 447.359 808.622C453.956 817.941 462.087 827.146 471.79 833.321C481.609 839.572 492.77 842.448 502.588 848.393C490.699 854.568 508.456 865.652 514.133 868.375C522.954 872.632 532.274 874.358 542.246 874.779C562.535 875.623 586.698 865.498 602.96 853.225C618.57 841.413 634.41 829.025 645.955 812.994C654.853 800.644 664.365 784.997 667.548 769.886C667.548 769.886 662.524 813.838 631.457 849.927C600.39 885.978 541.402 930.199 442.68 925.865C381.505 923.18 312.507 884.636 292.409 812.879C277.873 760.988 309.093 726.279 338.626 726.394C364.476 726.471 364.745 743.614 364.745 743.614C364.745 743.614 354.197 734.87 340.927 738.897C327.657 742.924 308.518 764.9 316.764 794.815C324.972 824.73 378.744 838.92 402.753 797.308C426.801 755.695 406.052 693.564 348.061 678.76C290.07 663.956 210.678 711.053 213.592 800.606C216.162 878.576 298.393 934.648 298.393 934.648C298.393 934.648 269.205 923.449 256.779 944.274C244.314 965.099 274.306 1025.93 365.857 1021.4C457.408 1016.88 477.773 985.541 477.773 985.541L474.897 994.938C471.982 1004.33 477.965 1040.23 546.12 1021.71C614.236 1003.18 717.907 919.728 721.934 746.069C725.961 572.409 669.581 470.814 581.29 405.27L581.329 405.346Z" fill="url(#paint3_linear_15_2342)"/>
<path d="M258.274 377.579C199.018 404.924 150.96 511.429 233.038 599.448C324.626 697.63 444.175 633.696 477.351 584.835C513.442 531.679 505.043 463.91 471.483 449.567C471.483 449.567 492.233 477.142 469.911 519.521C443.792 569.111 372.109 568.152 336.976 538.736C301.844 509.32 301.154 461.341 313.274 433.804C325.394 406.267 347.14 386.669 347.14 386.669C347.14 386.669 317.531 350.234 258.274 377.579Z" fill="url(#paint4_linear_15_2342)"/>
<path d="M107.928 401.856C133.433 406.497 151.613 399.709 151.613 399.709C151.613 399.709 153.3 416.469 169.37 418.194C185.441 419.92 190.887 410.409 223.794 377.618C256.702 344.826 304.261 353.417 304.261 353.417C269.397 312.188 195.834 272.072 126.606 302.447C57.3772 332.822 67.656 404.733 67.656 404.733C67.656 404.733 82.4606 397.254 107.928 401.895V401.856Z" fill="url(#paint5_linear_15_2342)"/>
<path d="M211.138 852.42C195.336 805.208 178.537 752.052 124.842 791.708C86.5262 819.974 127.105 890.964 170.406 915.778C213.746 940.592 266.099 924.638 266.099 924.638C243.01 917.351 221.302 882.795 211.138 852.42Z" fill="url(#paint6_linear_15_2342)"/>
<path d="M142.254 755.465C142.254 755.465 151.613 774.373 165.88 773.683C180.148 772.992 190.197 786.914 220.036 726.471C249.875 666.066 326.774 662.537 326.774 662.537C236.643 628.672 208.53 671.435 139.493 671.473C70.456 671.512 43.6467 634.885 43.6467 634.885C43.6467 634.885 29.264 667.6 39.1593 714.275C49.0546 760.95 80.6964 787.988 106.47 781.66C132.282 775.332 142.216 755.465 142.216 755.465H142.254Z" fill="url(#paint7_linear_15_2342)"/>
<path d="M184.865 646.429C238.177 634.54 261.957 638.414 261.957 638.414C230.391 629.861 195.298 584.452 179.573 555.764C163.848 527.077 142.178 549.206 110.191 549.091C78.2035 548.976 59.3718 508.668 71.6833 485.311C83.9949 461.954 103.747 469.395 103.747 469.395C103.747 469.395 91.2054 470.852 83.4579 484.736C75.7105 498.581 80.5431 527.805 112.76 532.139C144.977 536.435 168.987 511.659 169.409 485.541C169.792 459.423 148.276 415.855 89.5178 419.613C30.7598 423.372 -21.9 482.396 9.4351 570.913C40.7702 659.469 131.63 658.319 184.942 646.429H184.865Z" fill="url(#paint8_linear_15_2342)"/>
<path d="M489.74 647.35C503.662 646.659 514.363 634.809 513.711 620.887C513.02 606.965 501.169 596.264 487.247 596.916C473.324 597.607 462.624 609.458 463.276 623.38C463.966 637.301 475.817 648.002 489.74 647.35Z" fill="url(#paint9_linear_15_2342)"/>
<path d="M449.507 642.594C440.915 643.016 434.318 650.303 434.74 658.894C435.162 667.485 442.449 674.081 451.041 673.66C459.632 673.238 466.229 665.951 465.807 657.36C465.385 648.769 458.098 642.172 449.507 642.594Z" fill="url(#paint10_linear_15_2342)"/>
<path d="M404.096 652.412C391.094 653.064 381.083 664.11 381.735 677.111C382.387 690.113 393.433 700.084 406.435 699.471C419.437 698.819 429.448 687.773 428.796 674.772C428.144 661.77 417.098 651.76 404.096 652.412Z" fill="url(#paint11_linear_15_2342)"/>
<path d="M720.285 593.004C720.285 593.004 750.891 700.966 732.366 802.907C713.841 904.886 678.287 935.261 678.287 935.261C678.287 935.261 747.362 936.066 771.142 871.711C794.883 807.394 785.486 787.643 785.486 787.643C785.486 787.643 830.667 782.043 851.148 736.404C871.629 690.765 856.21 642.671 856.21 642.671C856.21 642.671 780.577 722.214 720.285 593.004Z" fill="url(#paint12_linear_15_2342)"/>
<path d="M777.24 314.835C748.244 273.337 688.681 277.978 688.681 277.978C688.681 277.978 691.327 297.193 683.58 311.076C675.832 324.921 657.346 342.678 617.189 348.048C577.033 353.417 555.248 373.015 555.248 373.015C679.898 373.591 709.469 409.182 757.488 410.14C805.545 411.137 806.197 356.37 777.201 314.873L777.24 314.835Z" fill="url(#paint13_linear_15_2342)"/>
<path d="M575.729 386.285C575.729 386.285 629.846 407.609 666.858 466.403C703.869 525.197 738.157 630.858 784.374 646.238C830.59 661.617 844.819 633.735 844.743 590.205C844.628 537.163 746.634 394.224 575.729 386.285Z" fill="url(#paint14_linear_15_2342)"/>
<path d="M439.573 899.593C454.032 909.872 472.595 911.406 489.663 908.721C500.67 906.995 527.94 899.325 528.093 884.483C525.524 883.677 522.34 883.716 519.732 883.255C502.32 880.187 483.411 866.649 468.108 853.072C447.359 834.663 435.776 812.073 424.653 787.221C424.653 787.221 407.394 826.225 377.977 831.326C348.598 836.427 328.769 838.997 328.769 838.997C326.813 839.265 342.73 869.41 344.686 871.903C352.778 882.181 363.747 890.235 376.979 891.846C393.702 893.879 414.681 893.956 424.653 877.349C421.125 883.255 436.236 897.216 439.611 899.593H439.573Z" fill="url(#paint15_linear_15_2342)"/>
</g>
<defs>
<linearGradient id="paint0_linear_15_2342" x1="450.235" y1="133.044" x2="450.235" y2="341.49" gradientUnits="userSpaceOnUse">
<stop stop-color="#86B92B"/>
<stop offset="1" stop-color="#487300"/>
</linearGradient>
<linearGradient id="paint1_linear_15_2342" x1="527.978" y1="133.044" x2="527.978" y2="341.49" gradientUnits="userSpaceOnUse">
<stop stop-color="#86B92B"/>
<stop offset="1" stop-color="#487300"/>
</linearGradient>
<linearGradient id="paint2_linear_15_2342" x1="458.059" y1="133.044" x2="458.059" y2="341.49" gradientUnits="userSpaceOnUse">
<stop stop-color="#86B92B"/>
<stop offset="1" stop-color="#487300"/>
</linearGradient>
<linearGradient id="paint3_linear_15_2342" x1="24.2397" y1="507.555" x2="775.964" y2="865.52" gradientUnits="userSpaceOnUse">
<stop stop-color="#F5165B"/>
<stop offset="0.19" stop-color="#EE1457"/>
<stop offset="0.45" stop-color="#DD114D"/>
<stop offset="0.74" stop-color="#C10C3C"/>
<stop offset="1" stop-color="#A2062A"/>
</linearGradient>
<linearGradient id="paint4_linear_15_2342" x1="77.2061" y1="396.333" x2="828.93" y2="754.298" gradientUnits="userSpaceOnUse">
<stop stop-color="#F5165B"/>
<stop offset="0.19" stop-color="#EE1457"/>
<stop offset="0.45" stop-color="#DD114D"/>
<stop offset="0.74" stop-color="#C10C3C"/>
<stop offset="1" stop-color="#A2062A"/>
</linearGradient>
<linearGradient id="paint5_linear_15_2342" x1="107.352" y1="333.09" x2="859.076" y2="691.055" gradientUnits="userSpaceOnUse">
<stop stop-color="#F5165B"/>
<stop offset="0.19" stop-color="#EE1457"/>
<stop offset="0.45" stop-color="#DD114D"/>
<stop offset="0.74" stop-color="#C10C3C"/>
<stop offset="1" stop-color="#A2062A"/>
</linearGradient>
<linearGradient id="paint6_linear_15_2342" x1="-80.9648" y1="728.542" x2="670.721" y2="1086.54" gradientUnits="userSpaceOnUse">
<stop stop-color="#F5165B"/>
<stop offset="0.19" stop-color="#EE1457"/>
<stop offset="0.45" stop-color="#DD114D"/>
<stop offset="0.74" stop-color="#C10C3C"/>
<stop offset="1" stop-color="#A2062A"/>
</linearGradient>
<linearGradient id="paint7_linear_15_2342" x1="-25.1217" y1="611.26" x2="726.602" y2="969.225" gradientUnits="userSpaceOnUse">
<stop stop-color="#F5165B"/>
<stop offset="0.19" stop-color="#EE1457"/>
<stop offset="0.45" stop-color="#DD114D"/>
<stop offset="0.74" stop-color="#C10C3C"/>
<stop offset="1" stop-color="#A2062A"/>
</linearGradient>
<linearGradient id="paint8_linear_15_2342" x1="28.4969" y1="498.696" x2="780.183" y2="856.66" gradientUnits="userSpaceOnUse">
<stop stop-color="#F5165B"/>
<stop offset="0.19" stop-color="#EE1457"/>
<stop offset="0.45" stop-color="#DD114D"/>
<stop offset="0.74" stop-color="#C10C3C"/>
<stop offset="1" stop-color="#A2062A"/>
</linearGradient>
<linearGradient id="paint9_linear_15_2342" x1="65.6233" y1="420.802" x2="817.271" y2="778.729" gradientUnits="userSpaceOnUse">
<stop stop-color="#F5165B"/>
<stop offset="0.19" stop-color="#EE1457"/>
<stop offset="0.45" stop-color="#DD114D"/>
<stop offset="0.74" stop-color="#C10C3C"/>
<stop offset="1" stop-color="#A2062A"/>
</linearGradient>
<linearGradient id="paint10_linear_15_2342" x1="44.5289" y1="464.946" x2="796.291" y2="822.949" gradientUnits="userSpaceOnUse">
<stop stop-color="#F5165B"/>
<stop offset="0.19" stop-color="#EE1457"/>
<stop offset="0.45" stop-color="#DD114D"/>
<stop offset="0.74" stop-color="#C10C3C"/>
<stop offset="1" stop-color="#A2062A"/>
</linearGradient>
<linearGradient id="paint11_linear_15_2342" x1="29.3022" y1="496.932" x2="781.065" y2="854.896" gradientUnits="userSpaceOnUse">
<stop stop-color="#F5165B"/>
<stop offset="0.19" stop-color="#EE1457"/>
<stop offset="0.45" stop-color="#DD114D"/>
<stop offset="0.74" stop-color="#C10C3C"/>
<stop offset="1" stop-color="#A2062A"/>
</linearGradient>
<linearGradient id="paint12_linear_15_2342" x1="52.3531" y1="448.569" x2="804.077" y2="806.534" gradientUnits="userSpaceOnUse">
<stop stop-color="#F5165B"/>
<stop offset="0.19" stop-color="#EE1457"/>
<stop offset="0.45" stop-color="#DD114D"/>
<stop offset="0.74" stop-color="#C10C3C"/>
<stop offset="1" stop-color="#A2062A"/>
</linearGradient>
<linearGradient id="paint13_linear_15_2342" x1="208.606" y1="120.426" x2="960.331" y2="478.429" gradientUnits="userSpaceOnUse">
<stop stop-color="#F5165B"/>
<stop offset="0.19" stop-color="#EE1457"/>
<stop offset="0.45" stop-color="#DD114D"/>
<stop offset="0.74" stop-color="#C10C3C"/>
<stop offset="1" stop-color="#A2062A"/>
</linearGradient>
<linearGradient id="paint14_linear_15_2342" x1="147.202" y1="249.406" x2="898.926" y2="607.37" gradientUnits="userSpaceOnUse">
<stop stop-color="#F5165B"/>
<stop offset="0.19" stop-color="#EE1457"/>
<stop offset="0.45" stop-color="#DD114D"/>
<stop offset="0.74" stop-color="#C10C3C"/>
<stop offset="1" stop-color="#A2062A"/>
</linearGradient>
<linearGradient id="paint15_linear_15_2342" x1="-35.439" y1="632.968" x2="716.247" y2="990.932" gradientUnits="userSpaceOnUse">
<stop stop-color="#F5165B"/>
<stop offset="0.19" stop-color="#EE1457"/>
<stop offset="0.45" stop-color="#DD114D"/>
<stop offset="0.74" stop-color="#C10C3C"/>
<stop offset="1" stop-color="#A2062A"/>
</linearGradient>
<clipPath id="clip0_15_2342">
<rect width="890" height="1027" fill="white"/>
</clipPath>
</defs>
</svg>
