<svg width="84" height="99" viewBox="0 0 84 99" fill="none" xmlns="http://www.w3.org/2000/svg">
    <g clip-path="url(#clip0_15_2361)">
        <g opacity="0.9">
            <path d="M25.6978 11.96C25.6978 11.96 21.9766 12.6366 21.6001 15.9417C21.2236 19.2469 23.5766 24.3452 24.2173 26.5042C24.858 28.6633 26.5521 29.9795 28.3838 32.1386C30.2155 34.2977 33.5929 35.9133 34.1503 36.3089C34.7078 36.7081 34.954 36.8782 34.954 36.8782C34.954 36.8782 37.5567 34.0056 43.3377 33.9575C49.115 33.9095 50.8273 36.0131 50.8273 36.0131C50.8273 36.0131 52.6372 33.9723 56.0544 33.1922C59.4716 32.4122 62.1721 31.4842 63.1313 27.9646C64.0942 24.445 62.5775 18.9844 60.7313 15.3613C58.8852 11.7419 60.2463 10.2704 60.2463 10.2704C60.2463 10.2704 57.7377 10.1521 58.0055 14.4629C58.2734 18.77 58.9141 23.3654 56.1377 25.1511C53.3648 26.9368 50.9178 28.094 50.1793 28.863C49.4408 29.632 48.9883 30.0793 48.9883 30.0793C48.9883 30.0793 48.6879 27.5394 45.4988 24.5337C42.3132 21.528 39.0481 19.3208 38.9431 15.9787C38.8417 12.6366 39.1096 12.0746 38.9503 11.2317C38.7911 10.3887 38.563 10.581 38.563 10.581C38.563 10.581 38.8635 11.8454 37.0028 14.0673C35.1422 16.2929 32.8001 19.5759 33.8463 23.9681C34.8924 28.3602 34.3277 28.9961 34.3277 28.9961C34.3277 28.9961 33.8607 26.7076 30.9793 23.8682C28.0978 21.0289 20.7458 15.6792 25.6942 11.96H25.6978Z" fill="url(#paint0_linear_15_2361)"/>
            <path d="M50.6716 9.47926C50.6716 9.47926 48.7712 12.0709 51.287 17.3022C53.8065 22.5336 54.0707 24.286 54.0961 24.8295L54.1214 25.3766C54.1214 25.3766 52.4852 26.068 51.392 26.8555C50.2988 27.6392 49.6146 28.3454 49.6146 28.3454C49.6146 28.3454 48.3802 26.2159 47.0626 24.8812C45.7449 23.5466 44.9341 21.5798 46.0852 17.0176C47.2364 12.4554 49.8282 9.40162 50.668 9.47926H50.6716Z" fill="url(#paint1_linear_15_2361)"/>
            <path d="M44.5105 22.5743C44.5105 22.5743 42.8779 20.8921 42.248 20.1305C41.6146 19.3726 41.2996 17.7422 41.9874 13.5091C42.6752 9.27223 42.3747 5.51602 41.4408 3.43087C40.5069 1.34573 39.334 0.554556 40.3838 0.0739381C41.4336 -0.40668 45.3974 1.46403 45.8861 2.90219C46.3711 4.34035 46.9937 7.29061 45.8933 11.6679C44.7928 16.0453 43.7467 20.2377 44.5141 22.5743H44.5105Z" fill="url(#paint2_linear_15_2361)"/>
        </g>
        <path d="M54.8669 39.0743C46.5339 32.7597 35.3085 33.976 32.4959 41.5846C29.6868 49.1931 36.0796 53.2525 40.2135 51.5851C44.3438 49.9141 44.8542 45.6698 42.3674 43.5218C39.8805 41.3738 37.3538 43.3703 37.3538 43.3703L37.3393 43.0449C37.9004 39.8507 44.923 38.8451 48.1049 43.7991C51.2868 48.7532 49.8751 52.4761 49.028 56.2508C48.1773 60.0292 50.2588 60.3287 54.2696 62.7244C58.2805 65.1201 59.0696 68.3255 59.0696 68.3255C59.0696 68.3255 60.2895 67.2903 61.4153 60.9831C62.5411 54.6759 58.161 44.6716 58.161 44.6716C58.161 44.6716 61.2416 47.5184 62.9429 54.8201C64.6479 62.1218 62.4977 70.2627 58.2334 74.0522C53.9655 77.838 48.7818 75.8268 47.8732 73.4385C46.961 71.0502 48.2497 69.7673 48.2497 69.7673C48.2497 69.7673 47.837 71.0872 48.0651 72.5364C48.2932 73.9857 51.6307 75.605 54.2298 73.4422C56.8289 71.2831 56.8289 66.4104 52.2714 64.2069C47.714 62.0035 41.0425 65.3419 40.4778 71.7822C40.2859 73.9783 40.9882 76.1669 42.2226 77.9489C42.8452 78.8473 43.6126 79.7346 44.5284 80.3298C45.4551 80.9324 46.5085 81.2097 47.4352 81.7828C46.3131 82.378 47.9891 83.4464 48.5248 83.7089C49.3574 84.1193 50.237 84.2857 51.1782 84.3263C53.0932 84.4077 55.3737 83.4317 56.9085 82.2486C58.3818 81.1099 59.8769 79.9157 60.9665 78.3704C61.8063 77.1799 62.704 75.6715 63.0045 74.2149C63.0045 74.2149 62.5303 78.4517 59.5981 81.9307C56.666 85.4059 51.0986 89.6686 41.7809 89.2508C36.0072 88.992 29.495 85.2765 27.5981 78.3593C26.2262 73.3572 29.1728 70.0113 31.9601 70.0224C34.3999 70.0298 34.4253 71.6824 34.4253 71.6824C34.4253 71.6824 33.4298 70.8395 32.1773 71.2276C30.9248 71.6158 29.1185 73.7343 29.8968 76.618C30.6714 79.5017 35.7465 80.8696 38.0126 76.8583C40.2823 72.847 38.3239 66.8577 32.8506 65.4306C27.3773 64.0036 19.8841 68.5436 20.1592 77.1762C20.4018 84.6924 28.1628 90.0975 28.1628 90.0975C28.1628 90.0975 25.4081 89.0179 24.2352 91.0254C23.0588 93.0329 25.8895 98.8965 34.5303 98.4602C43.171 98.024 45.0932 95.0035 45.0932 95.0035L44.8217 95.9093C44.5465 96.815 45.1113 100.275 51.5438 98.4898C57.9728 96.7041 67.7574 88.6593 68.1375 71.919C68.5176 55.1787 63.1963 45.3852 54.8633 39.0669L54.8669 39.0743Z" fill="url(#paint3_linear_15_2361)"/>
        <path d="M24.3765 36.3976C18.7838 39.0336 14.248 49.3004 21.9946 57.7851C30.639 67.2496 41.9222 61.0866 45.0535 56.3765C48.4598 51.2524 47.667 44.7197 44.4996 43.337C44.4996 43.337 46.458 45.9952 44.3512 50.0804C41.886 54.8607 35.1204 54.7683 31.8046 51.9327C28.4888 49.097 28.4236 44.472 29.5675 41.8175C30.7114 39.163 32.7639 37.2738 32.7639 37.2738C32.7639 37.2738 29.9693 33.7616 24.3765 36.3976Z" fill="url(#paint4_linear_15_2361)"/>
        <path d="M10.1865 38.7378C12.5937 39.1852 14.3096 38.5308 14.3096 38.5308C14.3096 38.5308 14.4688 40.1464 15.9856 40.3128C17.5023 40.4792 18.0163 39.5623 21.1222 36.4013C24.2281 33.2403 28.7168 34.0684 28.7168 34.0684C25.4263 30.0941 18.4833 26.227 11.9494 29.155C5.41544 32.0831 6.38557 39.0151 6.38557 39.0151C6.38557 39.0151 7.78286 38.2942 10.1865 38.7415V38.7378Z" fill="url(#paint5_linear_15_2361)"/>
        <path d="M19.9276 82.1709C18.4362 77.6199 16.8507 72.4957 11.7828 76.3185C8.16651 79.0432 11.9964 85.8865 16.0833 88.2785C20.1737 90.6705 25.1149 89.1325 25.1149 89.1325C22.9357 88.4301 20.8869 85.099 19.9276 82.1709Z" fill="url(#paint6_linear_15_2361)"/>
        <path d="M13.4262 72.8248C13.4262 72.8248 14.3095 74.6474 15.6561 74.5809C17.0027 74.5143 17.9511 75.8564 20.7674 70.0298C23.5837 64.2069 30.8416 63.8668 30.8416 63.8668C22.3348 60.6023 19.6814 64.7245 13.1656 64.7282C6.64974 64.7319 4.11942 61.2012 4.11942 61.2012C4.11942 61.2012 2.76196 64.3548 3.69589 68.8541C4.62983 73.3535 7.61626 75.9599 10.0488 75.3499C12.485 74.7399 13.4226 72.8248 13.4226 72.8248H13.4262Z" fill="url(#paint7_linear_15_2361)"/>
        <path d="M17.448 62.314C22.4797 61.1679 24.724 61.5414 24.724 61.5414C21.7448 60.7169 18.4326 56.3396 16.9485 53.5742C15.4643 50.8088 13.4191 52.942 10.4001 52.9309C7.38105 52.9198 5.60367 49.0342 6.76566 46.7827C7.92765 44.5312 9.79191 45.2484 9.79191 45.2484C9.79191 45.2484 8.6082 45.3889 7.87698 46.7272C7.14575 48.0619 7.60186 50.879 10.6426 51.2968C13.6833 51.7109 15.9494 49.3226 15.9892 46.8049C16.0254 44.2872 13.9946 40.0873 8.44892 40.4496C2.90322 40.8119 -2.06692 46.5017 0.890551 55.0345C3.84802 63.571 12.4236 63.4601 17.4553 62.314H17.448Z" fill="url(#paint8_linear_15_2361)"/>
        <path d="M46.2226 62.4028C47.5366 62.3362 48.5466 61.1938 48.485 59.8518C48.4199 58.5097 47.3013 57.4783 45.9873 57.5411C44.6733 57.6077 43.6633 58.7501 43.7248 60.0921C43.79 61.4341 44.9085 62.4656 46.2226 62.4028Z" fill="url(#paint9_linear_15_2361)"/>
        <path d="M42.4253 61.9443C41.6144 61.985 40.9918 62.6874 41.0316 63.5156C41.0714 64.3437 41.7592 64.9796 42.5701 64.9389C43.3809 64.8983 44.0035 64.1958 43.9637 63.3677C43.9239 62.5395 43.2361 61.9037 42.4253 61.9443Z" fill="url(#paint10_linear_15_2361)"/>
        <path d="M38.1394 62.8908C36.9122 62.9536 35.9674 64.0184 36.029 65.2717C36.0905 66.525 37.133 67.4862 38.3602 67.4271C39.5873 67.3642 40.5321 66.2995 40.4706 65.0462C40.4091 63.7929 39.3665 62.8279 38.1394 62.8908Z" fill="url(#paint11_linear_15_2361)"/>
        <path d="M67.9819 57.164C67.9819 57.164 70.8706 67.5713 69.1221 77.3981C67.3737 87.2286 64.0181 90.1566 64.0181 90.1566C64.0181 90.1566 70.5375 90.2343 72.7819 84.0306C75.0226 77.8306 74.1357 75.9266 74.1357 75.9266C74.1357 75.9266 78.4 75.3869 80.333 70.9874C82.266 66.5878 80.8108 61.9517 80.8108 61.9517C80.8108 61.9517 73.6724 69.6194 67.9819 57.164Z" fill="url(#paint12_linear_15_2361)"/>
        <path d="M73.3575 30.3492C70.6209 26.349 64.9992 26.7963 64.9992 26.7963C64.9992 26.7963 65.249 28.6485 64.5177 29.9869C63.7865 31.3215 62.0417 33.0333 58.2517 33.5509C54.4616 34.0684 52.4055 35.9576 52.4055 35.9576C64.1702 36.0131 66.9612 39.444 71.4933 39.5364C76.029 39.6325 76.0906 34.3531 73.3539 30.3529L73.3575 30.3492Z" fill="url(#paint13_linear_15_2361)"/>
        <path d="M54.3384 37.2368C54.3384 37.2368 59.4461 39.2924 62.9393 44.96C66.4325 50.6276 69.6687 60.813 74.0307 62.2956C78.3927 63.7781 79.7357 61.0903 79.7284 56.8941C79.7176 51.7811 70.4687 38.0021 54.3384 37.2368Z" fill="url(#paint14_linear_15_2361)"/>
        <path d="M69.0317 40.2684C69.0317 40.2684 74.791 43.9618 78.0236 48.7015C82.5159 55.2933 81.325 60.2252 81.325 60.2252C81.325 60.2252 86.5449 52.2913 82.4073 45.6809C78.2734 39.0706 69.0317 40.2684 69.0317 40.2684Z" fill="url(#paint15_linear_15_2361)"/>
        <path d="M41.4878 86.7184C42.8525 87.7092 44.6045 87.8571 46.2154 87.5983C47.2543 87.4319 49.828 86.6925 49.8425 85.2617C49.6 85.1841 49.2995 85.1878 49.0534 85.1434C47.4099 84.8476 45.6253 83.5426 44.181 82.2338C42.2226 80.4592 41.1294 78.2817 40.0796 75.886C40.0796 75.886 38.4507 79.6459 35.6742 80.1376C32.9013 80.6293 31.0298 80.877 31.0298 80.877C30.8452 80.9029 32.3475 83.8088 32.5321 84.0491C33.2959 85.0399 34.3312 85.8163 35.5801 85.9715C37.1584 86.1675 39.1384 86.1749 40.0796 84.5741C39.7466 85.1434 41.1728 86.4891 41.4914 86.7184H41.4878Z" fill="url(#paint16_linear_15_2361)"/>
    </g>
    <defs>
        <linearGradient id="paint0_linear_15_2361" x1="42.4942" y1="12.8251" x2="42.4942" y2="32.9186" gradientUnits="userSpaceOnUse">
            <stop stop-color="#86B92B"/>
            <stop offset="1" stop-color="#487300"/>
        </linearGradient>
        <linearGradient id="paint1_linear_15_2361" x1="49.8318" y1="12.8251" x2="49.8318" y2="32.9187" gradientUnits="userSpaceOnUse">
            <stop stop-color="#86B92B"/>
            <stop offset="1" stop-color="#487300"/>
        </linearGradient>
        <linearGradient id="paint2_linear_15_2361" x1="43.2327" y1="12.8251" x2="43.2327" y2="32.9187" gradientUnits="userSpaceOnUse">
            <stop stop-color="#86B92B"/>
            <stop offset="1" stop-color="#487300"/>
        </linearGradient>
        <linearGradient id="paint3_linear_15_2361" x1="2.28773" y1="48.927" x2="73.7838" y2="82.261" gradientUnits="userSpaceOnUse">
            <stop stop-color="#F5165B"/>
            <stop offset="0.19" stop-color="#EE1457"/>
            <stop offset="0.45" stop-color="#DD114D"/>
            <stop offset="0.74" stop-color="#C10C3C"/>
            <stop offset="1" stop-color="#A2062A"/>
        </linearGradient>
        <linearGradient id="paint4_linear_15_2361" x1="7.28695" y1="38.2055" x2="78.783" y2="71.5395" gradientUnits="userSpaceOnUse">
            <stop stop-color="#F5165B"/>
            <stop offset="0.19" stop-color="#EE1457"/>
            <stop offset="0.45" stop-color="#DD114D"/>
            <stop offset="0.74" stop-color="#C10C3C"/>
            <stop offset="1" stop-color="#A2062A"/>
        </linearGradient>
        <linearGradient id="paint5_linear_15_2361" x1="10.1322" y1="32.109" x2="81.6282" y2="65.443" gradientUnits="userSpaceOnUse">
            <stop stop-color="#F5165B"/>
            <stop offset="0.19" stop-color="#EE1457"/>
            <stop offset="0.45" stop-color="#DD114D"/>
            <stop offset="0.74" stop-color="#C10C3C"/>
            <stop offset="1" stop-color="#A2062A"/>
        </linearGradient>
        <linearGradient id="paint6_linear_15_2361" x1="-7.64163" y1="70.2294" x2="63.8509" y2="103.567" gradientUnits="userSpaceOnUse">
            <stop stop-color="#F5165B"/>
            <stop offset="0.19" stop-color="#EE1457"/>
            <stop offset="0.45" stop-color="#DD114D"/>
            <stop offset="0.74" stop-color="#C10C3C"/>
            <stop offset="1" stop-color="#A2062A"/>
        </linearGradient>
        <linearGradient id="paint7_linear_15_2361" x1="-2.37108" y1="58.9238" x2="69.125" y2="92.2578" gradientUnits="userSpaceOnUse">
            <stop stop-color="#F5165B"/>
            <stop offset="0.19" stop-color="#EE1457"/>
            <stop offset="0.45" stop-color="#DD114D"/>
            <stop offset="0.74" stop-color="#C10C3C"/>
            <stop offset="1" stop-color="#A2062A"/>
        </linearGradient>
        <linearGradient id="paint8_linear_15_2361" x1="2.68965" y1="48.0729" x2="74.1821" y2="81.407" gradientUnits="userSpaceOnUse">
            <stop stop-color="#F5165B"/>
            <stop offset="0.19" stop-color="#EE1457"/>
            <stop offset="0.45" stop-color="#DD114D"/>
            <stop offset="0.74" stop-color="#C10C3C"/>
            <stop offset="1" stop-color="#A2062A"/>
        </linearGradient>
        <linearGradient id="paint9_linear_15_2361" x1="6.19361" y1="40.5642" x2="77.6823" y2="73.8947" gradientUnits="userSpaceOnUse">
            <stop stop-color="#F5165B"/>
            <stop offset="0.19" stop-color="#EE1457"/>
            <stop offset="0.45" stop-color="#DD114D"/>
            <stop offset="0.74" stop-color="#C10C3C"/>
            <stop offset="1" stop-color="#A2062A"/>
        </linearGradient>
        <linearGradient id="paint10_linear_15_2361" x1="4.20264" y1="44.8195" x2="75.7023" y2="78.1572" gradientUnits="userSpaceOnUse">
            <stop stop-color="#F5165B"/>
            <stop offset="0.19" stop-color="#EE1457"/>
            <stop offset="0.45" stop-color="#DD114D"/>
            <stop offset="0.74" stop-color="#C10C3C"/>
            <stop offset="1" stop-color="#A2062A"/>
        </linearGradient>
        <linearGradient id="paint11_linear_15_2361" x1="2.7656" y1="47.9029" x2="74.2653" y2="81.2369" gradientUnits="userSpaceOnUse">
            <stop stop-color="#F5165B"/>
            <stop offset="0.19" stop-color="#EE1457"/>
            <stop offset="0.45" stop-color="#DD114D"/>
            <stop offset="0.74" stop-color="#C10C3C"/>
            <stop offset="1" stop-color="#A2062A"/>
        </linearGradient>
        <linearGradient id="paint12_linear_15_2361" x1="4.94115" y1="43.2409" x2="76.4372" y2="76.5749" gradientUnits="userSpaceOnUse">
            <stop stop-color="#F5165B"/>
            <stop offset="0.19" stop-color="#EE1457"/>
            <stop offset="0.45" stop-color="#DD114D"/>
            <stop offset="0.74" stop-color="#C10C3C"/>
            <stop offset="1" stop-color="#A2062A"/>
        </linearGradient>
        <linearGradient id="paint13_linear_15_2361" x1="19.6888" y1="11.6088" x2="91.1849" y2="44.9464" gradientUnits="userSpaceOnUse">
            <stop stop-color="#F5165B"/>
            <stop offset="0.19" stop-color="#EE1457"/>
            <stop offset="0.45" stop-color="#DD114D"/>
            <stop offset="0.74" stop-color="#C10C3C"/>
            <stop offset="1" stop-color="#A2062A"/>
        </linearGradient>
        <linearGradient id="paint14_linear_15_2361" x1="13.8931" y1="24.042" x2="85.3892" y2="57.3761" gradientUnits="userSpaceOnUse">
            <stop stop-color="#F5165B"/>
            <stop offset="0.19" stop-color="#EE1457"/>
            <stop offset="0.45" stop-color="#DD114D"/>
            <stop offset="0.74" stop-color="#C10C3C"/>
            <stop offset="1" stop-color="#A2062A"/>
        </linearGradient>
        <linearGradient id="paint15_linear_15_2361" x1="15.8118" y1="19.9309" x2="87.3043" y2="53.2649" gradientUnits="userSpaceOnUse">
            <stop stop-color="#F5165B"/>
            <stop offset="0.19" stop-color="#EE1457"/>
            <stop offset="0.45" stop-color="#DD114D"/>
            <stop offset="0.74" stop-color="#C10C3C"/>
            <stop offset="1" stop-color="#A2062A"/>
        </linearGradient>
        <linearGradient id="paint16_linear_15_2361" x1="-3.34481" y1="61.0164" x2="68.1476" y2="94.3504" gradientUnits="userSpaceOnUse">
            <stop stop-color="#F5165B"/>
            <stop offset="0.19" stop-color="#EE1457"/>
            <stop offset="0.45" stop-color="#DD114D"/>
            <stop offset="0.74" stop-color="#C10C3C"/>
            <stop offset="1" stop-color="#A2062A"/>
        </linearGradient>
        <clipPath id="clip0_15_2361">
            <rect width="84" height="99" fill="white"/>
        </clipPath>
    </defs>
</svg>
