<svg width="702" height="792" viewBox="0 0 702 792" fill="none" xmlns="http://www.w3.org/2000/svg">
    <g clip-path="url(#clip0_15_2323)">
        <path d="M721.109 20.8347C611.589 -60.4257 464.056 -44.7731 427.089 53.1391C390.17 151.051 474.19 203.29 528.521 181.833C582.805 160.329 589.514 105.711 556.829 78.0691C524.144 50.4272 490.936 76.1184 490.936 76.1184L490.746 71.9317C498.12 30.8257 590.418 17.885 632.237 81.6373C674.056 145.39 655.501 193.299 644.369 241.874C633.188 290.498 660.545 294.351 713.259 325.181C765.973 356.01 776.344 397.259 776.344 397.259C776.344 397.259 792.378 383.938 807.174 302.772C821.97 221.607 764.403 92.8653 764.403 92.8653C764.403 92.8653 804.89 129.499 827.251 223.462C849.659 317.426 821.399 422.189 765.354 470.955C709.262 519.673 641.134 493.791 629.192 463.057C617.203 432.323 634.14 415.814 634.14 415.814C634.14 415.814 628.716 432.798 631.714 451.448C634.711 470.098 678.576 490.937 712.735 463.105C746.895 435.32 746.895 372.614 686.997 344.259C627.099 315.903 539.416 358.865 531.994 441.743C529.473 470.003 538.703 498.168 554.926 521.1C563.109 532.661 573.195 544.08 585.232 551.739C597.411 559.494 611.256 563.063 623.435 570.437C608.687 578.097 630.714 591.846 637.756 595.224C648.698 600.505 660.259 602.646 672.629 603.169C697.797 604.216 727.769 591.656 747.942 576.432C767.305 561.778 786.954 546.411 801.274 526.524C812.312 511.204 824.111 491.793 828.06 473.048C828.06 473.048 821.827 527.571 783.29 572.34C744.754 617.062 671.582 671.917 549.122 666.541C473.238 663.211 387.649 615.397 362.719 526.381C344.688 462.01 383.415 418.954 420.048 419.096C452.114 419.192 452.447 440.458 452.447 440.458C452.447 440.458 439.364 429.611 422.903 434.606C406.441 439.602 382.701 466.863 392.93 503.973C403.111 541.082 469.813 558.686 499.595 507.065C529.425 455.445 503.687 378.371 431.752 360.007C359.817 341.642 261.335 400.066 264.951 511.157C268.138 607.879 370.141 677.436 370.141 677.436C370.141 677.436 333.936 663.544 318.521 689.378C303.059 715.212 340.263 790.668 453.827 785.054C567.391 779.44 592.654 740.57 592.654 740.57L589.085 752.226C585.47 763.882 592.892 808.414 677.434 785.434C761.929 762.455 890.527 658.929 895.522 443.503C900.518 228.077 830.581 102.048 721.061 20.7395L721.109 20.8347Z" fill="url(#paint0_linear_15_2323)"/>
        <path d="M320.377 -13.6107C246.872 20.3113 187.259 152.431 289.072 261.619C402.683 383.414 550.977 304.104 592.13 243.492C636.899 177.551 626.48 93.4838 584.851 75.6902C584.851 75.6902 610.59 109.898 582.901 162.47C550.501 223.986 461.582 222.796 418.002 186.305C374.423 149.814 373.566 90.2961 388.6 56.1363C403.634 21.9765 430.61 -2.33505 430.61 -2.33505C430.61 -2.33505 393.881 -47.5326 320.377 -13.6107Z" fill="url(#paint1_linear_15_2323)"/>
        <path d="M133.879 16.5052C165.517 22.2619 188.068 13.8409 188.068 13.8409C188.068 13.8409 190.161 34.6318 210.095 36.7728C230.03 38.9137 236.786 27.1147 277.606 -13.5631C318.426 -54.2409 377.42 -43.5837 377.42 -43.5837C334.174 -94.7283 242.923 -144.493 157.048 -106.813C71.1737 -69.1322 83.924 20.0734 83.924 20.0734C83.924 20.0734 102.288 10.7961 133.879 16.5528V16.5052Z" fill="url(#paint2_linear_15_2323)"/>
        <path d="M261.906 575.432C242.304 516.866 221.466 450.925 154.86 500.119C107.331 535.183 157.667 623.247 211.38 654.028C265.141 684.81 330.082 665.019 330.082 665.019C301.441 655.979 274.513 613.113 261.906 575.432Z" fill="url(#paint3_linear_15_2323)"/>
        <path d="M176.459 455.159C176.459 455.159 188.068 478.614 205.766 477.758C223.464 476.902 235.929 494.172 272.943 419.192C309.957 344.259 405.347 339.882 405.347 339.882C293.544 297.872 258.671 350.919 173.034 350.967C87.3971 351.015 54.1415 305.579 54.1415 305.579C54.1415 305.579 36.3006 346.162 48.5752 404.062C60.8497 461.963 100.1 495.504 132.071 487.654C164.09 479.804 176.412 455.159 176.412 455.159H176.459Z" fill="url(#paint4_linear_15_2323)"/>
        <path d="M229.316 319.9C295.447 305.151 324.944 309.956 324.944 309.956C285.789 299.347 242.257 243.016 222.751 207.429C203.245 171.842 176.364 199.294 136.686 199.151C97.0074 199.008 73.6477 149.005 88.9195 120.031C104.191 91.0574 128.693 100.287 128.693 100.287C128.693 100.287 113.136 102.095 103.525 119.318C93.915 136.493 99.9096 172.746 139.873 178.122C179.837 183.451 209.62 152.716 210.143 120.317C210.619 87.9173 183.929 33.8706 111.042 38.5331C38.156 43.1956 -27.1658 116.416 11.7038 226.222C50.5733 336.076 163.281 334.648 229.411 319.9H229.316Z" fill="url(#paint5_linear_15_2323)"/>
        <path d="M607.497 321.042C624.767 320.185 638.041 305.484 637.232 288.214C636.376 270.944 621.675 257.67 604.405 258.479C587.135 259.335 573.861 274.036 574.67 291.306C575.526 308.577 590.227 321.85 607.497 321.042Z" fill="url(#paint6_linear_15_2323)"/>
        <path d="M557.59 315.142C546.933 315.665 538.75 324.705 539.273 335.362C539.797 346.019 548.836 354.202 559.493 353.679C570.15 353.156 578.333 344.116 577.81 333.459C577.286 322.802 568.247 314.619 557.59 315.142Z" fill="url(#paint7_linear_15_2323)"/>
        <path d="M501.26 327.322C485.132 328.13 472.715 341.832 473.523 357.961C474.332 374.089 488.034 386.459 504.162 385.698C520.291 384.889 532.708 371.187 531.899 355.059C531.09 338.93 517.388 326.513 501.26 327.322Z" fill="url(#paint8_linear_15_2323)"/>
        <path d="M964.127 -91.4456C928.159 -142.923 854.274 -137.166 854.274 -137.166C854.274 -137.166 857.557 -113.331 847.946 -96.1081C838.336 -78.933 815.404 -56.9052 765.592 -50.2445C715.78 -43.5838 688.757 -19.2723 688.757 -19.2723C843.379 -18.5586 880.06 25.5923 939.625 26.7817C999.238 28.0186 1000.05 -39.9204 964.079 -91.3981L964.127 -91.4456Z" fill="url(#paint9_linear_15_2323)"/>
        <path d="M545.268 633.951C563.204 646.702 586.231 648.605 607.402 645.274C621.057 643.134 654.883 633.618 655.073 615.206C651.886 614.207 647.937 614.255 644.702 613.684C623.102 609.878 599.647 593.083 580.665 576.241C554.926 553.404 540.558 525.382 526.761 494.552C526.761 494.552 505.352 542.938 468.861 549.265C432.418 555.593 407.821 558.781 407.821 558.781C405.395 559.114 425.139 596.509 427.565 599.601C437.604 612.352 451.21 622.343 467.624 624.341C488.367 626.862 514.391 626.958 526.761 606.357C522.384 613.684 541.129 631.002 545.316 633.951H545.268Z" fill="url(#paint10_linear_15_2323)"/>
    </g>
    <defs>
        <linearGradient id="paint0_linear_15_2323" x1="30.0681" y1="147.626" x2="962.56" y2="591.65" gradientUnits="userSpaceOnUse">
            <stop stop-color="#F5165B"/>
            <stop offset="0.19" stop-color="#EE1457"/>
            <stop offset="0.45" stop-color="#DD114D"/>
            <stop offset="0.74" stop-color="#C10C3C"/>
            <stop offset="1" stop-color="#A2062A"/>
        </linearGradient>
        <linearGradient id="paint1_linear_15_2323" x1="95.7705" y1="9.65418" x2="1028.26" y2="453.678" gradientUnits="userSpaceOnUse">
            <stop stop-color="#F5165B"/>
            <stop offset="0.19" stop-color="#EE1457"/>
            <stop offset="0.45" stop-color="#DD114D"/>
            <stop offset="0.74" stop-color="#C10C3C"/>
            <stop offset="1" stop-color="#A2062A"/>
        </linearGradient>
        <linearGradient id="paint2_linear_15_2323" x1="133.165" y1="-68.7992" x2="1065.66" y2="375.225" gradientUnits="userSpaceOnUse">
            <stop stop-color="#F5165B"/>
            <stop offset="0.19" stop-color="#EE1457"/>
            <stop offset="0.45" stop-color="#DD114D"/>
            <stop offset="0.74" stop-color="#C10C3C"/>
            <stop offset="1" stop-color="#A2062A"/>
        </linearGradient>
        <linearGradient id="paint3_linear_15_2323" x1="-100.433" y1="421.761" x2="832.011" y2="865.832" gradientUnits="userSpaceOnUse">
            <stop stop-color="#F5165B"/>
            <stop offset="0.19" stop-color="#EE1457"/>
            <stop offset="0.45" stop-color="#DD114D"/>
            <stop offset="0.74" stop-color="#C10C3C"/>
            <stop offset="1" stop-color="#A2062A"/>
        </linearGradient>
        <linearGradient id="paint4_linear_15_2323" x1="-31.1621" y1="276.272" x2="901.33" y2="720.296" gradientUnits="userSpaceOnUse">
            <stop stop-color="#F5165B"/>
            <stop offset="0.19" stop-color="#EE1457"/>
            <stop offset="0.45" stop-color="#DD114D"/>
            <stop offset="0.74" stop-color="#C10C3C"/>
            <stop offset="1" stop-color="#A2062A"/>
        </linearGradient>
        <linearGradient id="paint5_linear_15_2323" x1="35.349" y1="136.636" x2="967.793" y2="580.66" gradientUnits="userSpaceOnUse">
            <stop stop-color="#F5165B"/>
            <stop offset="0.19" stop-color="#EE1457"/>
            <stop offset="0.45" stop-color="#DD114D"/>
            <stop offset="0.74" stop-color="#C10C3C"/>
            <stop offset="1" stop-color="#A2062A"/>
        </linearGradient>
        <linearGradient id="paint6_linear_15_2323" x1="81.4023" y1="40.008" x2="1013.8" y2="483.985" gradientUnits="userSpaceOnUse">
            <stop stop-color="#F5165B"/>
            <stop offset="0.19" stop-color="#EE1457"/>
            <stop offset="0.45" stop-color="#DD114D"/>
            <stop offset="0.74" stop-color="#C10C3C"/>
            <stop offset="1" stop-color="#A2062A"/>
        </linearGradient>
        <linearGradient id="paint7_linear_15_2323" x1="55.2356" y1="94.7686" x2="987.774" y2="538.84" gradientUnits="userSpaceOnUse">
            <stop stop-color="#F5165B"/>
            <stop offset="0.19" stop-color="#EE1457"/>
            <stop offset="0.45" stop-color="#DD114D"/>
            <stop offset="0.74" stop-color="#C10C3C"/>
            <stop offset="1" stop-color="#A2062A"/>
        </linearGradient>
        <linearGradient id="paint8_linear_15_2323" x1="36.3478" y1="134.447" x2="968.887" y2="578.471" gradientUnits="userSpaceOnUse">
            <stop stop-color="#F5165B"/>
            <stop offset="0.19" stop-color="#EE1457"/>
            <stop offset="0.45" stop-color="#DD114D"/>
            <stop offset="0.74" stop-color="#C10C3C"/>
            <stop offset="1" stop-color="#A2062A"/>
        </linearGradient>
        <linearGradient id="paint9_linear_15_2323" x1="258.766" y1="-332.61" x2="1191.26" y2="111.461" gradientUnits="userSpaceOnUse">
            <stop stop-color="#F5165B"/>
            <stop offset="0.19" stop-color="#EE1457"/>
            <stop offset="0.45" stop-color="#DD114D"/>
            <stop offset="0.74" stop-color="#C10C3C"/>
            <stop offset="1" stop-color="#A2062A"/>
        </linearGradient>
        <linearGradient id="paint10_linear_15_2323" x1="-43.9601" y1="303.2" x2="888.484" y2="747.224" gradientUnits="userSpaceOnUse">
            <stop stop-color="#F5165B"/>
            <stop offset="0.19" stop-color="#EE1457"/>
            <stop offset="0.45" stop-color="#DD114D"/>
            <stop offset="0.74" stop-color="#C10C3C"/>
            <stop offset="1" stop-color="#A2062A"/>
        </linearGradient>
        <clipPath id="clip0_15_2323">
            <rect width="1104" height="1274" fill="white" transform="translate(0 -482)"/>
        </clipPath>
    </defs>
</svg>