<svg width="715" height="1027" viewBox="0 0 715 1027" fill="none" xmlns="http://www.w3.org/2000/svg">
    <g clip-path="url(#clip0_15_2304)">
        <g opacity="0.9">
            <path d="M97.2738 124.07C97.2738 124.07 57.8461 131.088 53.8573 165.375C49.8685 199.662 74.7985 252.55 81.5871 274.948C88.3757 297.346 106.325 310.999 125.732 333.397C145.139 355.795 180.923 372.555 186.83 376.659C192.736 380.801 195.344 382.565 195.344 382.565C195.344 382.565 222.921 352.765 284.172 352.267C345.385 351.768 363.526 373.591 363.526 373.591C363.526 373.591 382.703 352.42 418.909 344.328C455.115 336.235 483.727 326.609 493.89 290.097C504.093 253.586 488.022 196.939 468.462 159.354C448.901 121.807 463.322 106.543 463.322 106.543C463.322 106.543 436.743 105.316 439.581 150.034C442.42 194.715 449.208 242.387 419.791 260.911C390.412 279.435 364.485 291.44 356.661 299.417C348.836 307.394 344.042 312.035 344.042 312.035C344.042 312.035 340.859 285.687 307.069 254.506C273.318 223.326 238.723 200.43 237.61 165.759C236.536 131.088 239.375 125.259 237.687 116.515C235.999 107.77 233.583 109.765 233.583 109.765C233.583 109.765 236.767 122.881 217.053 145.931C197.339 169.019 172.524 203.076 183.608 248.638C194.692 294.201 188.709 300.798 188.709 300.798C188.709 300.798 183.762 277.058 153.232 247.603C122.702 218.148 44.8058 162.652 97.2354 124.07H97.2738Z" fill="url(#paint0_linear_15_2304)"/>
            <path d="M361.877 98.3355C361.877 98.3355 341.741 125.221 368.397 179.489C395.091 233.758 397.891 251.937 398.159 257.575L398.428 263.251C398.428 263.251 381.092 270.423 369.509 278.592C357.926 286.722 350.677 294.048 350.677 294.048C350.677 294.048 337.599 271.957 323.638 258.112C309.677 244.266 301.086 223.863 313.282 176.536C325.479 129.209 352.94 97.5301 361.838 98.3355H361.877Z" fill="url(#paint1_linear_15_2304)"/>
            <path d="M296.598 234.18C296.598 234.18 279.301 216.729 272.627 208.829C265.915 200.966 262.579 184.053 269.866 140.14C277.153 96.1878 273.97 57.2217 264.074 35.591C254.179 13.9603 241.752 5.75286 252.875 0.767048C263.998 -4.21876 305.995 15.1875 311.173 30.1066C316.312 45.0257 322.909 75.6309 311.25 121.04C299.59 166.449 288.506 209.941 296.637 234.18H296.598Z" fill="url(#paint2_linear_15_2304)"/>
        </g>
        <path d="M406.329 405.346C318.038 339.84 199.103 352.458 169.302 431.388C139.54 510.317 207.272 552.428 251.072 535.131C294.834 517.795 300.242 473.767 273.893 451.484C247.544 429.201 220.773 449.912 220.773 449.912L220.62 446.537C226.564 413.4 300.971 402.968 334.684 454.361C368.397 505.753 353.439 544.374 344.464 583.531C335.451 622.728 357.504 625.834 400 650.686C442.496 675.539 450.857 708.79 450.857 708.79C450.857 708.79 463.783 698.052 475.711 632.622C487.639 567.193 441.231 463.412 441.231 463.412C441.231 463.412 473.87 492.943 491.896 568.689C509.961 644.435 487.178 728.887 441.998 768.198C396.779 807.471 341.856 786.607 332.229 761.832C322.564 737.056 336.218 723.748 336.218 723.748C336.218 723.748 331.846 737.44 334.262 752.474C336.678 767.508 372.04 784.306 399.578 761.87C427.116 739.472 427.116 688.924 378.829 666.066C330.542 643.208 259.855 677.84 253.872 744.65C251.84 767.431 259.28 790.136 272.359 808.622C278.956 817.941 287.087 827.146 296.79 833.32C306.609 839.572 317.77 842.448 327.588 848.393C315.699 854.568 333.456 865.652 339.133 868.375C347.954 872.632 357.274 874.358 367.246 874.779C387.535 875.623 411.698 865.498 427.96 853.225C443.57 841.413 459.41 829.025 470.955 812.994C479.853 800.644 489.365 784.997 492.548 769.886C492.548 769.886 487.524 813.837 456.457 849.927C425.39 885.978 366.402 930.199 267.68 925.865C206.505 923.18 137.507 884.636 117.409 812.879C102.873 760.988 134.093 726.279 163.626 726.394C189.476 726.471 189.745 743.614 189.745 743.614C189.745 743.614 179.197 734.87 165.927 738.897C152.657 742.924 133.518 764.9 141.764 794.815C149.972 824.73 203.744 838.92 227.753 797.308C251.801 755.695 231.052 693.564 173.061 678.76C115.07 663.956 35.6775 711.053 38.5924 800.606C41.1621 878.576 123.393 934.647 123.393 934.647C123.393 934.647 94.2054 923.449 81.7788 944.274C69.3138 965.099 99.3065 1025.93 190.857 1021.4C282.408 1016.88 302.773 985.541 302.773 985.541L299.897 994.937C296.982 1004.33 302.965 1040.23 371.12 1021.71C439.236 1003.18 542.907 919.728 546.934 746.069C550.961 572.409 494.581 470.814 406.29 405.27L406.329 405.346Z" fill="url(#paint3_linear_15_2304)"/>
        <path d="M83.2744 377.579C24.0178 404.924 -24.0395 511.429 58.0376 599.448C149.626 697.63 269.175 633.696 302.351 584.835C338.442 531.679 330.043 463.91 296.483 449.567C296.483 449.567 317.233 477.142 294.911 519.521C268.792 569.111 197.109 568.152 161.976 538.736C126.844 509.32 126.154 461.341 138.274 433.804C150.394 406.267 172.14 386.669 172.14 386.669C172.14 386.669 142.531 350.234 83.2744 377.579Z" fill="url(#paint4_linear_15_2304)"/>
        <path d="M-67.0725 401.856C-41.5672 406.497 -23.3875 399.708 -23.3875 399.708C-23.3875 399.708 -21.6999 416.468 -5.62967 418.194C10.4406 419.92 15.8868 410.409 48.7944 377.618C81.7019 344.826 129.261 353.417 129.261 353.417C94.397 312.188 20.8344 272.072 -48.3942 302.447C-117.623 332.822 -107.344 404.733 -107.344 404.733C-107.344 404.733 -92.5394 397.254 -67.0725 401.895V401.856Z" fill="url(#paint5_linear_15_2304)"/>
        <path d="M36.1376 852.42C20.3359 805.208 3.53689 752.052 -50.1584 791.708C-88.4739 819.974 -47.8956 890.964 -4.59411 915.778C38.7457 940.592 91.0986 924.637 91.0986 924.637C68.0096 917.351 46.3014 882.795 36.1376 852.42Z" fill="url(#paint6_linear_15_2304)"/>
        <path d="M-32.7457 755.465C-32.7457 755.465 -23.3874 774.373 -9.11977 773.683C5.14786 772.992 15.1965 786.914 45.0358 726.471C74.8751 666.066 151.774 662.537 151.774 662.537C61.643 628.672 33.5297 671.435 -35.5072 671.473C-104.544 671.512 -131.353 634.885 -131.353 634.885C-131.353 634.885 -145.736 667.6 -135.841 714.275C-125.945 760.95 -94.3036 787.988 -68.5298 781.66C-42.7177 775.332 -32.784 755.465 -32.784 755.465H-32.7457Z" fill="url(#paint7_linear_15_2304)"/>
        <path d="M9.86528 646.429C63.1771 634.54 86.9564 638.414 86.9564 638.414C55.3912 629.861 20.2975 584.452 4.57245 555.764C-11.1526 527.077 -32.8225 549.206 -64.8096 549.091C-96.7967 548.976 -115.628 508.668 -103.317 485.311C-91.0052 461.954 -71.253 469.395 -71.253 469.395C-71.253 469.395 -83.7947 470.852 -91.5422 484.736C-99.2896 498.581 -94.4571 527.805 -62.2399 532.139C-30.0227 536.435 -6.01321 511.659 -5.59131 485.541C-5.20778 459.423 -26.7243 415.855 -85.4823 419.613C-144.24 423.372 -196.9 482.396 -165.565 570.914C-134.23 659.469 -43.3698 658.319 9.94199 646.429H9.86528Z" fill="url(#paint8_linear_15_2304)"/>
        <path d="M314.74 647.35C328.662 646.659 339.363 634.809 338.711 620.887C338.02 606.965 326.169 596.264 312.247 596.916C298.324 597.607 287.624 609.458 288.276 623.38C288.966 637.301 300.817 648.002 314.74 647.35Z" fill="url(#paint9_linear_15_2304)"/>
        <path d="M274.507 642.594C265.915 643.016 259.318 650.303 259.74 658.894C260.162 667.485 267.449 674.081 276.041 673.66C284.632 673.238 291.229 665.951 290.807 657.36C290.385 648.769 283.098 642.172 274.507 642.594Z" fill="url(#paint10_linear_15_2304)"/>
        <path d="M229.096 652.412C216.094 653.064 206.083 664.11 206.735 677.111C207.387 690.113 218.433 700.084 231.435 699.471C244.437 698.819 254.448 687.773 253.796 674.772C253.144 661.77 242.098 651.76 229.096 652.412Z" fill="url(#paint11_linear_15_2304)"/>
        <path d="M545.285 593.004C545.285 593.004 575.891 700.966 557.366 802.907C538.841 904.886 503.287 935.261 503.287 935.261C503.287 935.261 572.362 936.066 596.142 871.711C619.883 807.394 610.486 787.643 610.486 787.643C610.486 787.643 655.667 782.043 676.148 736.404C696.629 690.765 681.21 642.671 681.21 642.671C681.21 642.671 605.577 722.214 545.285 593.004Z" fill="url(#paint12_linear_15_2304)"/>
        <path d="M602.24 314.835C573.244 273.337 513.681 277.978 513.681 277.978C513.681 277.978 516.327 297.193 508.58 311.076C500.832 324.921 482.346 342.678 442.189 348.048C402.033 353.417 380.248 373.015 380.248 373.015C504.898 373.591 534.469 409.182 582.488 410.14C630.545 411.137 631.197 356.37 602.201 314.873L602.24 314.835Z" fill="url(#paint13_linear_15_2304)"/>
        <path d="M400.729 386.285C400.729 386.285 454.846 407.609 491.858 466.403C528.869 525.197 563.157 630.858 609.374 646.238C655.59 661.617 669.819 633.735 669.743 590.205C669.628 537.163 571.634 394.224 400.729 386.285Z" fill="url(#paint14_linear_15_2304)"/>
        <path d="M556.407 417.734C556.407 417.734 617.428 456.048 651.678 505.216C699.275 573.598 686.657 624.76 686.657 624.76C686.657 624.76 741.963 542.456 698.124 473.882C654.324 405.308 556.407 417.734 556.407 417.734Z" fill="url(#paint15_linear_15_2304)"/>
        <path d="M264.573 899.593C279.032 909.872 297.595 911.406 314.663 908.721C325.67 906.995 352.94 899.325 353.093 884.483C350.524 883.677 347.34 883.715 344.732 883.255C327.32 880.187 308.411 866.649 293.108 853.072C272.359 834.663 260.776 812.073 249.653 787.221C249.653 787.221 232.394 826.225 202.977 831.326C173.598 836.427 153.769 838.997 153.769 838.997C151.813 839.265 167.73 869.41 169.686 871.903C177.778 882.181 188.747 890.235 201.979 891.846C218.702 893.879 239.681 893.956 249.653 877.349C246.125 883.255 261.236 897.216 264.611 899.593H264.573Z" fill="url(#paint16_linear_15_2304)"/>
    </g>
    <defs>
        <linearGradient id="paint0_linear_15_2304" x1="275.235" y1="133.044" x2="275.235" y2="341.49" gradientUnits="userSpaceOnUse">
            <stop stop-color="#86B92B"/>
            <stop offset="1" stop-color="#487300"/>
        </linearGradient>
        <linearGradient id="paint1_linear_15_2304" x1="352.978" y1="133.044" x2="352.978" y2="341.49" gradientUnits="userSpaceOnUse">
            <stop stop-color="#86B92B"/>
            <stop offset="1" stop-color="#487300"/>
        </linearGradient>
        <linearGradient id="paint2_linear_15_2304" x1="283.059" y1="133.044" x2="283.059" y2="341.49" gradientUnits="userSpaceOnUse">
            <stop stop-color="#86B92B"/>
            <stop offset="1" stop-color="#487300"/>
        </linearGradient>
        <linearGradient id="paint3_linear_15_2304" x1="-150.76" y1="507.555" x2="600.964" y2="865.52" gradientUnits="userSpaceOnUse">
            <stop stop-color="#F5165B"/>
            <stop offset="0.19" stop-color="#EE1457"/>
            <stop offset="0.45" stop-color="#DD114D"/>
            <stop offset="0.74" stop-color="#C10C3C"/>
            <stop offset="1" stop-color="#A2062A"/>
        </linearGradient>
        <linearGradient id="paint4_linear_15_2304" x1="-97.7939" y1="396.333" x2="653.93" y2="754.298" gradientUnits="userSpaceOnUse">
            <stop stop-color="#F5165B"/>
            <stop offset="0.19" stop-color="#EE1457"/>
            <stop offset="0.45" stop-color="#DD114D"/>
            <stop offset="0.74" stop-color="#C10C3C"/>
            <stop offset="1" stop-color="#A2062A"/>
        </linearGradient>
        <linearGradient id="paint5_linear_15_2304" x1="-67.6478" y1="333.09" x2="684.076" y2="691.055" gradientUnits="userSpaceOnUse">
            <stop stop-color="#F5165B"/>
            <stop offset="0.19" stop-color="#EE1457"/>
            <stop offset="0.45" stop-color="#DD114D"/>
            <stop offset="0.74" stop-color="#C10C3C"/>
            <stop offset="1" stop-color="#A2062A"/>
        </linearGradient>
        <linearGradient id="paint6_linear_15_2304" x1="-255.965" y1="728.542" x2="495.721" y2="1086.54" gradientUnits="userSpaceOnUse">
            <stop stop-color="#F5165B"/>
            <stop offset="0.19" stop-color="#EE1457"/>
            <stop offset="0.45" stop-color="#DD114D"/>
            <stop offset="0.74" stop-color="#C10C3C"/>
            <stop offset="1" stop-color="#A2062A"/>
        </linearGradient>
        <linearGradient id="paint7_linear_15_2304" x1="-200.122" y1="611.26" x2="551.602" y2="969.225" gradientUnits="userSpaceOnUse">
            <stop stop-color="#F5165B"/>
            <stop offset="0.19" stop-color="#EE1457"/>
            <stop offset="0.45" stop-color="#DD114D"/>
            <stop offset="0.74" stop-color="#C10C3C"/>
            <stop offset="1" stop-color="#A2062A"/>
        </linearGradient>
        <linearGradient id="paint8_linear_15_2304" x1="-146.503" y1="498.696" x2="605.183" y2="856.66" gradientUnits="userSpaceOnUse">
            <stop stop-color="#F5165B"/>
            <stop offset="0.19" stop-color="#EE1457"/>
            <stop offset="0.45" stop-color="#DD114D"/>
            <stop offset="0.74" stop-color="#C10C3C"/>
            <stop offset="1" stop-color="#A2062A"/>
        </linearGradient>
        <linearGradient id="paint9_linear_15_2304" x1="-109.377" y1="420.802" x2="642.271" y2="778.729" gradientUnits="userSpaceOnUse">
            <stop stop-color="#F5165B"/>
            <stop offset="0.19" stop-color="#EE1457"/>
            <stop offset="0.45" stop-color="#DD114D"/>
            <stop offset="0.74" stop-color="#C10C3C"/>
            <stop offset="1" stop-color="#A2062A"/>
        </linearGradient>
        <linearGradient id="paint10_linear_15_2304" x1="-130.471" y1="464.946" x2="621.291" y2="822.949" gradientUnits="userSpaceOnUse">
            <stop stop-color="#F5165B"/>
            <stop offset="0.19" stop-color="#EE1457"/>
            <stop offset="0.45" stop-color="#DD114D"/>
            <stop offset="0.74" stop-color="#C10C3C"/>
            <stop offset="1" stop-color="#A2062A"/>
        </linearGradient>
        <linearGradient id="paint11_linear_15_2304" x1="-145.698" y1="496.932" x2="606.065" y2="854.896" gradientUnits="userSpaceOnUse">
            <stop stop-color="#F5165B"/>
            <stop offset="0.19" stop-color="#EE1457"/>
            <stop offset="0.45" stop-color="#DD114D"/>
            <stop offset="0.74" stop-color="#C10C3C"/>
            <stop offset="1" stop-color="#A2062A"/>
        </linearGradient>
        <linearGradient id="paint12_linear_15_2304" x1="-122.647" y1="448.569" x2="629.077" y2="806.534" gradientUnits="userSpaceOnUse">
            <stop stop-color="#F5165B"/>
            <stop offset="0.19" stop-color="#EE1457"/>
            <stop offset="0.45" stop-color="#DD114D"/>
            <stop offset="0.74" stop-color="#C10C3C"/>
            <stop offset="1" stop-color="#A2062A"/>
        </linearGradient>
        <linearGradient id="paint13_linear_15_2304" x1="33.6064" y1="120.426" x2="785.331" y2="478.429" gradientUnits="userSpaceOnUse">
            <stop stop-color="#F5165B"/>
            <stop offset="0.19" stop-color="#EE1457"/>
            <stop offset="0.45" stop-color="#DD114D"/>
            <stop offset="0.74" stop-color="#C10C3C"/>
            <stop offset="1" stop-color="#A2062A"/>
        </linearGradient>
        <linearGradient id="paint14_linear_15_2304" x1="-27.798" y1="249.406" x2="723.926" y2="607.37" gradientUnits="userSpaceOnUse">
            <stop stop-color="#F5165B"/>
            <stop offset="0.19" stop-color="#EE1457"/>
            <stop offset="0.45" stop-color="#DD114D"/>
            <stop offset="0.74" stop-color="#C10C3C"/>
            <stop offset="1" stop-color="#A2062A"/>
        </linearGradient>
        <linearGradient id="paint15_linear_15_2304" x1="-7.47061" y1="206.758" x2="744.215" y2="564.722" gradientUnits="userSpaceOnUse">
            <stop stop-color="#F5165B"/>
            <stop offset="0.19" stop-color="#EE1457"/>
            <stop offset="0.45" stop-color="#DD114D"/>
            <stop offset="0.74" stop-color="#C10C3C"/>
            <stop offset="1" stop-color="#A2062A"/>
        </linearGradient>
        <linearGradient id="paint16_linear_15_2304" x1="-210.439" y1="632.968" x2="541.247" y2="990.932" gradientUnits="userSpaceOnUse">
            <stop stop-color="#F5165B"/>
            <stop offset="0.19" stop-color="#EE1457"/>
            <stop offset="0.45" stop-color="#DD114D"/>
            <stop offset="0.74" stop-color="#C10C3C"/>
            <stop offset="1" stop-color="#A2062A"/>
        </linearGradient>
        <clipPath id="clip0_15_2304">
            <rect width="890" height="1027" fill="white" transform="translate(-175)"/>
        </clipPath>
    </defs>
</svg>